<svg width="67" height="86" viewBox="0 0 67 86" fill="none" xmlns="http://www.w3.org/2000/svg">
<rect x="2" y="2" width="62.7855" height="43.1903" rx="7" fill="#7000FE" stroke="#C4C4C4" stroke-width="4"/>
<path d="M26.1288 18.388L26.1382 18.3805L32.987 12.9018C32.9871 12.9017 32.9871 12.9017 32.9871 12.9017C33.0927 12.8155 33.245 12.8148 33.3513 12.9001L26.1288 18.388ZM26.1288 18.388V18.4V18.7693V18.7943H26.1538H40.1846H40.2096V18.7693V18.4V18.388L40.2002 18.3805L33.3513 12.9002L26.1288 18.388Z" fill="#D1CECE" stroke="black" stroke-width="0.05"/>
<path d="M37.9691 18.9846V14.1231C37.9691 13.0185 37.0737 12.1231 35.9691 12.1231H30.3692C29.2646 12.1231 28.3692 13.0185 28.3692 14.1231V18.9846C28.3692 20.0892 29.2646 20.9846 30.3692 20.9846H35.9691C37.0737 20.9846 37.9691 20.0892 37.9691 18.9846Z" fill="white"/>
<path d="M26.1538 18.7692H40.1846V24.6308C40.1846 26.2876 38.8414 27.6308 37.1846 27.6308H29.1538C27.497 27.6308 26.1538 26.2876 26.1538 24.6308V18.7692Z" fill="#E6E6E6"/>
<rect x="31.1941" y="13.6739" width="3.87693" height="3.87693" rx="1" fill="#00B100"/>
<path d="M32.6631 15.4356C32.5655 15.3379 32.4072 15.3379 32.3096 15.4356C32.2119 15.5332 32.2119 15.6915 32.3096 15.7891L32.6631 15.4356ZM34.3017 15.1162C34.3846 15.0057 34.3622 14.849 34.2517 14.7662C34.1413 14.6833 33.9846 14.7057 33.9017 14.8162L34.3017 15.1162ZM32.3096 15.7891L32.7926 16.2722L33.1462 15.9187L32.6631 15.4356L32.3096 15.7891ZM33.4708 16.224L34.3017 15.1162L33.9017 14.8162L33.0708 15.924L33.4708 16.224ZM32.7926 16.2722C32.9863 16.4659 33.3065 16.4431 33.4708 16.224L33.0708 15.924C33.0891 15.8997 33.1247 15.8971 33.1462 15.9187L32.7926 16.2722Z" fill="white"/>
<path d="M34.415 24L34.3879 24.0421L34.3901 24.0434L34.415 24ZM39.4213 26.9357C39.4452 26.9494 39.4758 26.9412 39.4895 26.9172C39.5033 26.8933 39.495 26.8627 39.4711 26.849L39.4213 26.9357ZM26.867 26.8492C26.8432 26.8632 26.8352 26.8939 26.8492 26.9177C26.8632 26.9415 26.8939 26.9494 26.9177 26.9354L26.867 26.8492ZM34.3901 24.0434L39.4213 26.9357L39.4711 26.849L34.4399 23.9567L34.3901 24.0434ZM34.442 23.9579L34.2311 23.8225L34.177 23.9066L34.388 24.0421L34.442 23.9579ZM32.0839 23.7804L26.867 26.8492L26.9177 26.9354L32.1346 23.8666L32.0839 23.7804ZM34.2311 23.8225C33.5805 23.4047 32.7503 23.3885 32.0839 23.7804L32.1346 23.8666C32.7685 23.4938 33.5582 23.5092 34.177 23.9066L34.2311 23.8225Z" fill="black"/>
<path d="M26.1538 18.7692H40.1846" stroke="black" stroke-width="0.05"/>
<path d="M44.8587 63.6237C44.8587 63.6237 53.7722 59.6617 54.9906 58.228C56.209 56.7943 56.4308 54.5847 56.4311 53.4772C56.4313 52.5609 55.4453 41.789 55.1047 38.0954C55.0399 37.392 54.4504 36.8617 53.744 36.8617C52.9859 36.8617 52.372 37.4701 52.373 38.2282C52.3786 42.4517 52.3469 55.0519 51.7736 55.6972C51.0842 56.473 43.098 60.3174 43.098 60.3174L44.8587 63.6237Z" fill="#FADFBF"/>
<path d="M25.1413 63.8496C25.1413 63.8496 16.2278 59.8875 15.0094 58.4538C13.791 57.0202 13.5692 54.8106 13.5689 53.703C13.5687 52.7867 14.5547 42.0149 14.8953 38.3212C14.9601 37.6178 15.5496 37.0875 16.256 37.0875C17.0141 37.0876 17.628 37.6959 17.627 38.454C17.6214 42.6775 17.6531 55.2778 18.2264 55.923C18.9158 56.6988 26.902 60.5432 26.902 60.5432L25.1413 63.8496Z" fill="#FADFBF"/>
<path d="M21.1275 85.9694C21.1275 85.9694 18.5141 56.4309 35.6408 56.4309C52.7675 56.4309 50.4137 85.9694 50.4137 85.9694H43.4208H34.9107H28.0191H21.1275Z" fill="#B0DC34"/>
<ellipse cx="35.3848" cy="44.6155" rx="12.1846" ry="11.8154" fill="#FADFBF"/>
</svg>
