<svg width="71" height="87" viewBox="0 0 71 87" fill="none" xmlns="http://www.w3.org/2000/svg">
<rect y="15.1639" width="50" height="75" transform="rotate(-17.6545 0 15.1639)" fill="#BDBDBD"/>
<rect x="10" y="8" width="50" height="75" fill="white"/>
<path d="M16.998 24.5469C17.168 24.5469 17.2646 24.4648 17.3262 24.2744L17.6455 23.3662H19.2627L19.585 24.2773C19.6436 24.4648 19.7402 24.5469 19.916 24.5469C20.1064 24.5469 20.2441 24.4209 20.2441 24.248C20.2441 24.1924 20.2324 24.1367 20.2031 24.0547L18.9141 20.5654C18.8262 20.3311 18.6855 20.2256 18.457 20.2256C18.2256 20.2256 18.082 20.334 17.9971 20.5684L16.7109 24.0547C16.6816 24.1338 16.6699 24.1982 16.6699 24.248C16.6699 24.4268 16.8018 24.5469 16.998 24.5469ZM17.8125 22.8301L18.4424 20.9756H18.46L19.0957 22.8301H17.8125ZM21.1318 24.5469C21.334 24.5469 21.46 24.418 21.46 24.207V23.0557H22.3682C23.1973 23.0557 23.7803 22.4873 23.7803 21.6611C23.7803 20.8379 23.209 20.2725 22.3887 20.2725H21.1318C20.9268 20.2725 20.8037 20.4014 20.8037 20.6123V24.207C20.8037 24.418 20.9268 24.5469 21.1318 24.5469ZM21.46 22.5049V20.8262H22.2158C22.7842 20.8262 23.1094 21.1309 23.1094 21.6641C23.1094 22.1973 22.7842 22.5049 22.2129 22.5049H21.46ZM24.6826 24.5469C24.8848 24.5469 25.0107 24.418 25.0107 24.207V23.0557H25.9189C26.748 23.0557 27.3311 22.4873 27.3311 21.6611C27.3311 20.8379 26.7598 20.2725 25.9395 20.2725H24.6826C24.4775 20.2725 24.3545 20.4014 24.3545 20.6123V24.207C24.3545 24.418 24.4775 24.5469 24.6826 24.5469ZM25.0107 22.5049V20.8262H25.7666C26.335 20.8262 26.6602 21.1309 26.6602 21.6641C26.6602 22.1973 26.335 22.5049 25.7637 22.5049H25.0107ZM28.2334 24.5H30.2725C30.4541 24.5 30.5771 24.3887 30.5771 24.2158C30.5771 24.043 30.4541 23.9316 30.2725 23.9316H28.5615V20.5654C28.5615 20.3545 28.4355 20.2256 28.2334 20.2256C28.0283 20.2256 27.9053 20.3545 27.9053 20.5654V24.1602C27.9053 24.3711 28.0283 24.5 28.2334 24.5ZM31.4209 24.5469C31.623 24.5469 31.749 24.418 31.749 24.207V20.5654C31.749 20.3545 31.623 20.2256 31.4209 20.2256C31.2158 20.2256 31.0928 20.3545 31.0928 20.5654V24.207C31.0928 24.418 31.2158 24.5469 31.4209 24.5469ZM34.3184 24.5703C35.1035 24.5703 35.6807 24.2393 35.9531 23.668C36 23.5713 36.0234 23.4863 36.0234 23.3955C36.0234 23.2227 35.9004 23.0996 35.7217 23.0996C35.5781 23.0996 35.4932 23.1641 35.4229 23.3193C35.2266 23.7764 34.8311 23.9961 34.3154 23.9961C33.5391 23.9961 33.0469 23.3721 33.0469 22.3848C33.0469 21.4062 33.5449 20.7764 34.3125 20.7764C34.7988 20.7764 35.2148 21.0283 35.4111 21.5C35.4844 21.6699 35.5869 21.7461 35.7422 21.7461C35.918 21.7461 36.0352 21.6318 36.0352 21.4561C36.0352 21.377 36.0146 21.2891 35.9736 21.2041C35.71 20.5801 35.0889 20.2021 34.3125 20.2021C33.1318 20.2021 32.376 21.0459 32.376 22.3848C32.376 23.7324 33.123 24.5703 34.3184 24.5703ZM36.7559 24.5469C36.9258 24.5469 37.0225 24.4648 37.084 24.2744L37.4033 23.3662H39.0205L39.3428 24.2773C39.4014 24.4648 39.498 24.5469 39.6738 24.5469C39.8643 24.5469 40.002 24.4209 40.002 24.248C40.002 24.1924 39.9902 24.1367 39.9609 24.0547L38.6719 20.5654C38.584 20.3311 38.4434 20.2256 38.2148 20.2256C37.9834 20.2256 37.8398 20.334 37.7549 20.5684L36.4688 24.0547C36.4395 24.1338 36.4277 24.1982 36.4277 24.248C36.4277 24.4268 36.5596 24.5469 36.7559 24.5469ZM37.5703 22.8301L38.2002 20.9756H38.2178L38.8535 22.8301H37.5703ZM41.3584 24.5469C41.5605 24.5469 41.6865 24.418 41.6865 24.207V20.8408H42.7207C42.9023 20.8408 43.0254 20.7295 43.0254 20.5566C43.0254 20.3838 42.9023 20.2725 42.7207 20.2725H39.9932C39.8115 20.2725 39.6885 20.3838 39.6885 20.5566C39.6885 20.7295 39.8115 20.8408 39.9932 20.8408H41.0303V24.207C41.0303 24.418 41.1533 24.5469 41.3584 24.5469ZM43.8428 24.5469C44.0449 24.5469 44.1709 24.418 44.1709 24.207V20.5654C44.1709 20.3545 44.0449 20.2256 43.8428 20.2256C43.6377 20.2256 43.5146 20.3545 43.5146 20.5654V24.207C43.5146 24.418 43.6377 24.5469 43.8428 24.5469ZM46.7783 24.5703C47.9941 24.5703 48.7588 23.7324 48.7588 22.3877C48.7588 21.043 47.9941 20.2021 46.7783 20.2021C45.5596 20.2021 44.7979 21.043 44.7979 22.3877C44.7979 23.7324 45.5596 24.5703 46.7783 24.5703ZM46.7783 23.9932C45.9756 23.9932 45.4688 23.3721 45.4688 22.3877C45.4688 21.4004 45.9756 20.7793 46.7783 20.7793C47.5811 20.7793 48.085 21.4004 48.085 22.3877C48.085 23.3721 47.5811 23.9932 46.7783 23.9932ZM49.7051 24.5469C49.9043 24.5469 50.0244 24.4209 50.0244 24.2129V21.3857H50.0508L52.1338 24.3447C52.2422 24.4971 52.3271 24.5469 52.4883 24.5469C52.708 24.5469 52.834 24.4209 52.834 24.207V20.5596C52.834 20.3516 52.7139 20.2256 52.5146 20.2256C52.3184 20.2256 52.1953 20.3516 52.1953 20.5596V23.3896H52.1719L50.0918 20.4307C49.9834 20.2783 49.8926 20.2256 49.7373 20.2256C49.5205 20.2256 49.3857 20.3633 49.3857 20.5801V24.2129C49.3857 24.4209 49.5059 24.5469 49.7051 24.5469Z" fill="black"/>
<rect x="16.5" y="69" width="37" height="2.5" fill="#C4C4C4"/>
<rect x="16.5" y="65" width="37" height="2.5" fill="#C4C4C4"/>
<rect x="16.5" y="61" width="37" height="2.5" fill="#C4C4C4"/>
<rect x="16.5" y="57" width="37" height="2.5" fill="#C4C4C4"/>
<rect x="16.5" y="53" width="37" height="2.5" fill="#C4C4C4"/>
<rect x="16.5" y="49" width="37" height="2.5" fill="#C4C4C4"/>
<rect x="16.5" y="45" width="37" height="2.5" fill="#C4C4C4"/>
<rect x="16.5" y="41" width="37" height="2.5" fill="#C4C4C4"/>
<rect x="16.5" y="37" width="37" height="2.5" fill="#C4C4C4"/>
<rect x="16.5" y="33" width="37" height="2.5" fill="#C4C4C4"/>
<path d="M59.2358 64.3883L56.6132 62.9961L56.3273 65.0956L56.1289 66.148L56.1082 66.7052L56 67.5L57.0031 66.6121L57.6179 65.9442L59.2358 64.3883Z" fill="#C7C5C5"/>
<path d="M56 67.5L56.1289 66.148L57.0031 66.6121L56 67.5Z" fill="#4EA5F4"/>
<path d="M70.8305 42.7158C70.8305 42.7158 70.1826 42.3434 69.8877 42.2153L69.1003 43.7733L69.4385 45.2005C69.4666 45.3188 69.4519 45.4435 69.3973 45.5516L67.6078 49.0924C67.5735 49.1603 67.5245 49.2194 67.4646 49.265L66.9298 49.673C66.8498 49.734 66.7843 49.8129 66.7385 49.9036C66.6597 50.0596 66.6434 50.2409 66.693 50.409L66.75 50.6016C66.7724 50.6775 66.8238 50.7409 66.8925 50.7773C67.0332 50.852 67.2062 50.7957 67.2791 50.6515L71 43.2893L70.8305 42.7158Z" fill="#C7C5C5"/>
<path d="M69.0342 40.6133L69.9084 41.0774C70.3912 41.3337 70.5799 41.9426 70.3298 42.4374L59.2358 64.3883L56.6132 62.9961L67.7072 41.0451C67.9573 40.5503 68.5514 40.357 69.0342 40.6133Z" fill="#4EA5F4"/>
<path d="M65.8016 51.397L63.179 50.0047L62.4998 51.3486L65.1224 52.7409L65.8016 51.397Z" fill="#C7C5C5"/>
</svg>
