<svg width="100" height="100" viewBox="0 0 100 100" fill="none" xmlns="http://www.w3.org/2000/svg">
<rect width="100" height="100" fill="url(#paint0_radial_35_211)"/>
<path d="M35.5 23L36.5194 25.1663C38.4823 29.3373 39.5 33.8902 39.5 38.5V38.5V38.5C39.5 38.8154 39.354 39.113 39.1045 39.3059L13 59.5M39.5 21.5L43 32V32C43.3312 32.9935 43.5 34.0339 43.5 35.0811V36.64C43.5 37.87 43.2788 39.0899 42.8469 40.2416V40.2416C42.2899 41.7269 41.396 43.0629 40.2354 44.1443L20 63M44 20.5L45.8023 25.5464C46.2662 26.8455 46.5983 28.188 46.7934 29.5536V29.5536C46.931 30.5167 47 31.4882 47 32.4611V33.1644C47 38.3045 45.6991 43.3609 43.2185 47.8627L33.5 65.5M50.5 11V65.5M46 15H55M57.5 19.5L55 26.5L54.8123 27.2508C54.2728 29.4088 54 31.6248 54 33.8492V33.8492C54 38.2187 55.0525 42.524 57.0684 46.4007L67 65.5M62.5 20.5L60.2367 25.7056C58.4315 29.8575 57.5 34.3363 57.5 38.8636V39V39C57.5 39.3312 57.5534 39.6602 57.6581 39.9743L57.698 40.0939C57.8963 40.689 58.2368 41.2267 58.6899 41.6605L81.5 63.5M65.5 22.5L61.748 31.6715C61.2541 32.8789 61 34.171 61 35.4756V35.4756C61 37.7571 61.7765 39.9706 63.2016 41.7521L63.8161 42.5201C64.6011 43.5014 65.5258 44.3622 66.5607 45.0751L87.5 59.5" stroke="white" stroke-width="2"/>
<path d="M43.1491 77.2727H44.9943V82.9403C44.9943 83.5767 44.8423 84.1335 44.5384 84.6108C44.2372 85.0881 43.8153 85.4602 43.2727 85.7273C42.7301 85.9915 42.098 86.1236 41.3764 86.1236C40.652 86.1236 40.0185 85.9915 39.4759 85.7273C38.9332 85.4602 38.5114 85.0881 38.2102 84.6108C37.9091 84.1335 37.7585 83.5767 37.7585 82.9403V77.2727H39.6037V82.7827C39.6037 83.1151 39.6761 83.4105 39.821 83.669C39.9688 83.9276 40.1761 84.1307 40.4432 84.2784C40.7102 84.4261 41.0213 84.5 41.3764 84.5C41.7344 84.5 42.0455 84.4261 42.3097 84.2784C42.5767 84.1307 42.7827 83.9276 42.9276 83.669C43.0753 83.4105 43.1491 83.1151 43.1491 82.7827V77.2727ZM54.2127 80.3281H52.3462C52.3121 80.0866 52.2425 79.8722 52.1374 79.6847C52.0323 79.4943 51.8974 79.3324 51.7326 79.1989C51.5678 79.0653 51.3775 78.9631 51.1616 78.892C50.9485 78.821 50.717 78.7855 50.467 78.7855C50.0153 78.7855 49.6218 78.8977 49.2866 79.1222C48.9513 79.3437 48.6914 79.6676 48.5067 80.0938C48.3221 80.517 48.2298 81.0312 48.2298 81.6364C48.2298 82.2585 48.3221 82.7812 48.5067 83.2045C48.6942 83.6278 48.9556 83.9474 49.2908 84.1634C49.6261 84.3793 50.0138 84.4872 50.4542 84.4872C50.7013 84.4872 50.93 84.4545 51.1403 84.3892C51.3533 84.3239 51.5423 84.2287 51.707 84.1037C51.8718 83.9759 52.0082 83.821 52.1161 83.6392C52.2269 83.4574 52.3036 83.25 52.3462 83.017L54.2127 83.0256C54.1644 83.4261 54.0437 83.8125 53.8505 84.1847C53.6602 84.554 53.4031 84.8849 53.0792 85.1776C52.7582 85.4673 52.3746 85.6974 51.9286 85.8679C51.4854 86.0355 50.984 86.1193 50.4244 86.1193C49.646 86.1193 48.9499 85.9432 48.3363 85.5909C47.7255 85.2386 47.2425 84.7287 46.8874 84.0611C46.5352 83.3935 46.359 82.5852 46.359 81.6364C46.359 80.6847 46.538 79.875 46.896 79.2074C47.2539 78.5398 47.7397 78.0312 48.3533 77.6818C48.967 77.3295 49.6573 77.1534 50.4244 77.1534C50.93 77.1534 51.3988 77.2244 51.8306 77.3665C52.2653 77.5085 52.6502 77.7159 52.9854 77.9886C53.3207 78.2585 53.5934 78.5895 53.8036 78.9815C54.0167 79.3736 54.1531 79.8224 54.2127 80.3281ZM55.5359 86V77.2727H59.0302C59.6722 77.2727 60.2077 77.3679 60.6367 77.5582C61.0657 77.7486 61.3881 78.0128 61.604 78.3509C61.82 78.6861 61.9279 79.0724 61.9279 79.5099C61.9279 79.8509 61.8597 80.1506 61.7234 80.4091C61.587 80.6648 61.3995 80.875 61.1609 81.0398C60.9251 81.2017 60.6552 81.3168 60.3512 81.3849V81.4702C60.6836 81.4844 60.9947 81.5781 61.2844 81.7514C61.5771 81.9247 61.8143 82.1676 61.9961 82.4801C62.1779 82.7898 62.2688 83.1591 62.2688 83.5881C62.2688 84.0511 62.1538 84.4645 61.9237 84.8281C61.6964 85.1889 61.3597 85.4744 60.9137 85.6847C60.4677 85.8949 59.918 86 59.2646 86H55.5359ZM57.381 84.4915H58.8853C59.3995 84.4915 59.7745 84.3935 60.0103 84.1974C60.2461 83.9986 60.364 83.7344 60.364 83.4048C60.364 83.1634 60.3058 82.9503 60.1893 82.7656C60.0728 82.581 59.9066 82.4361 59.6907 82.331C59.4776 82.2259 59.2234 82.1733 58.9279 82.1733H57.381V84.4915ZM57.381 80.9247H58.7489C59.0018 80.9247 59.2262 80.8807 59.4222 80.7926C59.6211 80.7017 59.7773 80.5739 59.891 80.4091C60.0075 80.2443 60.0657 80.0469 60.0657 79.8168C60.0657 79.5014 59.9535 79.2472 59.729 79.054C59.5075 78.8608 59.1921 78.7642 58.783 78.7642H57.381V80.9247Z" fill="white"/>
<defs>
<radialGradient id="paint0_radial_35_211" cx="0" cy="0" r="1" gradientUnits="userSpaceOnUse" gradientTransform="translate(50 50) rotate(90) scale(50)">
<stop stop-color="#033D9C"/>
<stop offset="0.9999" stop-color="#021F50" stop-opacity="0.510417"/>
<stop offset="1" stop-opacity="0"/>
</radialGradient>
</defs>
</svg>
