<svg width="61" height="75" viewBox="0 0 61 75" fill="none" xmlns="http://www.w3.org/2000/svg">
<rect width="50" height="75" fill="white"/>
<path d="M7.17773 12.0312C7.3125 12.0312 7.39648 11.9453 7.39648 11.8047V9.56055H8.08594C8.20703 9.56055 8.28906 9.48633 8.28906 9.37109C8.28906 9.25586 8.20703 9.18164 8.08594 9.18164H6.26758C6.14648 9.18164 6.06445 9.25586 6.06445 9.37109C6.06445 9.48633 6.14648 9.56055 6.26758 9.56055H6.95898V11.8047C6.95898 11.9453 7.04102 12.0312 7.17773 12.0312ZM8.95117 12.0391C9.33398 12.0391 9.63281 11.8848 9.76758 11.6152C9.78516 11.5742 9.79688 11.5352 9.79688 11.502C9.79688 11.3965 9.72266 11.3301 9.62109 11.3301C9.56055 11.3301 9.51758 11.3516 9.47266 11.4043C9.31641 11.6172 9.17188 11.6973 8.94141 11.6973C8.60547 11.6973 8.39453 11.4629 8.39453 11.0879V11.0781H9.63672C9.76758 11.0781 9.8457 11 9.8457 10.8633C9.8457 10.3027 9.46875 9.9082 8.92188 9.9082C8.33984 9.9082 7.96875 10.3301 7.96875 10.9824C7.96875 11.6465 8.33203 12.0391 8.95117 12.0391ZM8.39648 10.7832C8.41797 10.4629 8.62891 10.248 8.91992 10.248C9.21289 10.248 9.41406 10.4609 9.42383 10.7832H8.39648ZM11.0527 12.0391C11.4336 12.0391 11.7676 11.8379 11.875 11.5547C11.8906 11.5137 11.8984 11.4785 11.8984 11.4453C11.8984 11.3398 11.8223 11.2695 11.7188 11.2695C11.627 11.2695 11.582 11.3047 11.5234 11.4062C11.4238 11.584 11.2852 11.6855 11.0566 11.6855C10.7305 11.6855 10.5117 11.4199 10.5117 10.9727C10.5117 10.5352 10.7266 10.2598 11.0566 10.2598C11.2734 10.2598 11.418 10.3535 11.5234 10.5488C11.5742 10.6426 11.625 10.6777 11.7148 10.6777C11.8184 10.6777 11.8945 10.6113 11.8945 10.5039C11.8945 10.4746 11.8867 10.4395 11.875 10.4062C11.7852 10.1191 11.4453 9.9082 11.0488 9.9082C10.4629 9.9082 10.082 10.3262 10.082 10.9766C10.082 11.6309 10.4648 12.0391 11.0527 12.0391ZM12.4512 12.0371C12.5742 12.0371 12.6621 11.9531 12.6621 11.8145V10.8027C12.6621 10.4844 12.8535 10.2734 13.1504 10.2734C13.4434 10.2734 13.5879 10.4434 13.5879 10.752V11.8145C13.5879 11.9531 13.6758 12.0371 13.7988 12.0371C13.9238 12.0371 14.0117 11.9531 14.0117 11.8145V10.6699C14.0117 10.1992 13.752 9.91016 13.2988 9.91016C12.9824 9.91016 12.7676 10.0508 12.6562 10.2852H12.6465V10.123C12.6465 9.99219 12.5625 9.9082 12.4414 9.9082C12.3184 9.9082 12.2402 9.99219 12.2402 10.1211V11.8145C12.2402 11.9531 12.3262 12.0371 12.4512 12.0371ZM14.6465 12.0371C14.7695 12.0371 14.8574 11.9531 14.8574 11.8145V10.8125C14.8574 10.4883 15.0488 10.2734 15.3613 10.2734C15.6582 10.2734 15.8105 10.4551 15.8105 10.7578V11.8145C15.8105 11.9531 15.8984 12.0371 16.0215 12.0371C16.1465 12.0371 16.2344 11.9531 16.2344 11.8145V10.6758C16.2344 10.2109 15.9648 9.91016 15.5137 9.91016C15.2012 9.91016 14.9766 10.0488 14.8633 10.2891H14.8535V9.36328C14.8535 9.23047 14.7754 9.14453 14.6445 9.14453C14.5156 9.14453 14.4355 9.23047 14.4355 9.36328V11.8145C14.4355 11.9531 14.5234 12.0371 14.6465 12.0371ZM16.8672 9.63477C17.0039 9.63477 17.1133 9.52539 17.1133 9.39258C17.1133 9.25781 17.0039 9.15234 16.8672 9.15234C16.7324 9.15234 16.623 9.25781 16.623 9.39258C16.623 9.52539 16.7324 9.63477 16.8672 9.63477ZM16.8672 12.0371C16.9941 12.0371 17.0781 11.9492 17.0781 11.8145V10.1328C17.0781 9.99609 16.9941 9.9082 16.8672 9.9082C16.7402 9.9082 16.6562 9.99609 16.6562 10.1328V11.8145C16.6562 11.9492 16.7402 12.0371 16.8672 12.0371ZM18.3887 12.0391C18.7695 12.0391 19.1035 11.8379 19.2109 11.5547C19.2266 11.5137 19.2344 11.4785 19.2344 11.4453C19.2344 11.3398 19.1582 11.2695 19.0547 11.2695C18.9629 11.2695 18.918 11.3047 18.8594 11.4062C18.7598 11.584 18.6211 11.6855 18.3926 11.6855C18.0664 11.6855 17.8477 11.4199 17.8477 10.9727C17.8477 10.5352 18.0625 10.2598 18.3926 10.2598C18.6094 10.2598 18.7539 10.3535 18.8594 10.5488C18.9102 10.6426 18.9609 10.6777 19.0508 10.6777C19.1543 10.6777 19.2305 10.6113 19.2305 10.5039C19.2305 10.4746 19.2227 10.4395 19.2109 10.4062C19.1211 10.1191 18.7812 9.9082 18.3848 9.9082C17.7988 9.9082 17.418 10.3262 17.418 10.9766C17.418 11.6309 17.8008 12.0391 18.3887 12.0391ZM20.1777 12.0352C20.4453 12.0352 20.707 11.8906 20.8262 11.6621H20.8359V11.8359C20.8398 11.9609 20.9199 12.0371 21.0371 12.0371C21.1562 12.0371 21.2402 11.957 21.2402 11.8242V10.584C21.2402 10.1719 20.9219 9.9082 20.4238 9.9082C20.0547 9.9082 19.7441 10.0566 19.6367 10.2891C19.6113 10.3359 19.5996 10.3828 19.5996 10.4258C19.5996 10.5312 19.6758 10.6016 19.7812 10.6016C19.8555 10.6016 19.9102 10.5742 19.9531 10.5117C20.0703 10.3242 20.2051 10.252 20.4082 10.252C20.666 10.252 20.8203 10.3887 20.8203 10.6172V10.7754L20.2559 10.8086C19.7695 10.8359 19.4922 11.0566 19.4922 11.416C19.4922 11.7852 19.7754 12.0352 20.1777 12.0352ZM20.293 11.7012C20.0684 11.7012 19.918 11.584 19.918 11.4043C19.918 11.2285 20.0605 11.1172 20.3125 11.0996L20.8203 11.0684V11.2305C20.8203 11.498 20.5879 11.7012 20.293 11.7012ZM21.877 12.0371C22 12.0371 22.0879 11.9531 22.0879 11.8145V9.36719C22.0879 9.22852 22 9.14453 21.877 9.14453C21.7539 9.14453 21.666 9.22852 21.666 9.36719V11.8145C21.666 11.9531 21.7539 12.0371 21.877 12.0371ZM23.457 12.0312C23.5703 12.0312 23.6348 11.9766 23.6758 11.8496L23.8887 11.2441H24.9668L25.1816 11.8516C25.2207 11.9766 25.2852 12.0312 25.4023 12.0312C25.5293 12.0312 25.6211 11.9473 25.6211 11.832C25.6211 11.7949 25.6133 11.7578 25.5938 11.7031L24.7344 9.37695C24.6758 9.2207 24.582 9.15039 24.4297 9.15039C24.2754 9.15039 24.1797 9.22266 24.123 9.37891L23.2656 11.7031C23.2461 11.7559 23.2383 11.7988 23.2383 11.832C23.2383 11.9512 23.3262 12.0312 23.457 12.0312ZM24 10.8867L24.4199 9.65039H24.4316L24.8555 10.8867H24ZM26.6934 12.0391C27.2012 12.0391 27.543 11.7852 27.543 11.4043C27.543 11.0996 27.377 10.9453 26.9453 10.8457L26.627 10.7715C26.4102 10.7207 26.3105 10.6309 26.3105 10.502C26.3105 10.3418 26.4668 10.2305 26.6934 10.2305C26.9004 10.2305 27.0254 10.3125 27.1172 10.4688C27.1582 10.5352 27.2188 10.5586 27.2871 10.5586C27.3926 10.5586 27.4512 10.4961 27.4512 10.4023C27.4512 10.3828 27.4473 10.3633 27.4434 10.3398C27.3848 10.0977 27.0801 9.9082 26.709 9.9082C26.2207 9.9082 25.8984 10.1543 25.8984 10.5254C25.8984 10.8184 26.0938 11.0137 26.4922 11.1074L26.8164 11.1836C27.0371 11.2363 27.1172 11.3086 27.1172 11.4434C27.1172 11.6133 26.9551 11.7168 26.7148 11.7168C26.4707 11.7168 26.3477 11.6426 26.2422 11.4766C26.1895 11.3984 26.1289 11.3652 26.0586 11.3652C25.9531 11.3652 25.877 11.4277 25.877 11.5332C25.877 11.5605 25.8809 11.5898 25.8945 11.6211C25.9922 11.873 26.2891 12.0391 26.6934 12.0391ZM28.627 12.0391C29.1348 12.0391 29.4766 11.7852 29.4766 11.4043C29.4766 11.0996 29.3105 10.9453 28.8789 10.8457L28.5605 10.7715C28.3438 10.7207 28.2441 10.6309 28.2441 10.502C28.2441 10.3418 28.4004 10.2305 28.627 10.2305C28.834 10.2305 28.959 10.3125 29.0508 10.4688C29.0918 10.5352 29.1523 10.5586 29.2207 10.5586C29.3262 10.5586 29.3848 10.4961 29.3848 10.4023C29.3848 10.3828 29.3809 10.3633 29.377 10.3398C29.3184 10.0977 29.0137 9.9082 28.6426 9.9082C28.1543 9.9082 27.832 10.1543 27.832 10.5254C27.832 10.8184 28.0273 11.0137 28.4258 11.1074L28.75 11.1836C28.9707 11.2363 29.0508 11.3086 29.0508 11.4434C29.0508 11.6133 28.8887 11.7168 28.6484 11.7168C28.4043 11.7168 28.2812 11.6426 28.1758 11.4766C28.123 11.3984 28.0625 11.3652 27.9922 11.3652C27.8867 11.3652 27.8105 11.4277 27.8105 11.5332C27.8105 11.5605 27.8145 11.5898 27.8281 11.6211C27.9258 11.873 28.2227 12.0391 28.627 12.0391ZM30.6934 12.0391C31.0762 12.0391 31.375 11.8848 31.5098 11.6152C31.5273 11.5742 31.5391 11.5352 31.5391 11.502C31.5391 11.3965 31.4648 11.3301 31.3633 11.3301C31.3027 11.3301 31.2598 11.3516 31.2148 11.4043C31.0586 11.6172 30.9141 11.6973 30.6836 11.6973C30.3477 11.6973 30.1367 11.4629 30.1367 11.0879V11.0781H31.3789C31.5098 11.0781 31.5879 11 31.5879 10.8633C31.5879 10.3027 31.2109 9.9082 30.6641 9.9082C30.082 9.9082 29.7109 10.3301 29.7109 10.9824C29.7109 11.6465 30.0742 12.0391 30.6934 12.0391ZM30.1387 10.7832C30.1602 10.4629 30.3711 10.248 30.6621 10.248C30.9551 10.248 31.1562 10.4609 31.166 10.7832H30.1387ZM32.6738 12.0391C33.1816 12.0391 33.5234 11.7852 33.5234 11.4043C33.5234 11.0996 33.3574 10.9453 32.9258 10.8457L32.6074 10.7715C32.3906 10.7207 32.291 10.6309 32.291 10.502C32.291 10.3418 32.4473 10.2305 32.6738 10.2305C32.8809 10.2305 33.0059 10.3125 33.0977 10.4688C33.1387 10.5352 33.1992 10.5586 33.2676 10.5586C33.373 10.5586 33.4316 10.4961 33.4316 10.4023C33.4316 10.3828 33.4277 10.3633 33.4238 10.3398C33.3652 10.0977 33.0605 9.9082 32.6895 9.9082C32.2012 9.9082 31.8789 10.1543 31.8789 10.5254C31.8789 10.8184 32.0742 11.0137 32.4727 11.1074L32.7969 11.1836C33.0176 11.2363 33.0977 11.3086 33.0977 11.4434C33.0977 11.6133 32.9355 11.7168 32.6953 11.7168C32.4512 11.7168 32.3281 11.6426 32.2227 11.4766C32.1699 11.3984 32.1094 11.3652 32.0391 11.3652C31.9336 11.3652 31.8574 11.4277 31.8574 11.5332C31.8574 11.5605 31.8613 11.5898 31.875 11.6211C31.9727 11.873 32.2695 12.0391 32.6738 12.0391ZM34.6074 12.0391C35.1152 12.0391 35.457 11.7852 35.457 11.4043C35.457 11.0996 35.291 10.9453 34.8594 10.8457L34.541 10.7715C34.3242 10.7207 34.2246 10.6309 34.2246 10.502C34.2246 10.3418 34.3809 10.2305 34.6074 10.2305C34.8145 10.2305 34.9395 10.3125 35.0312 10.4688C35.0723 10.5352 35.1328 10.5586 35.2012 10.5586C35.3066 10.5586 35.3652 10.4961 35.3652 10.4023C35.3652 10.3828 35.3613 10.3633 35.3574 10.3398C35.2988 10.0977 34.9941 9.9082 34.623 9.9082C34.1348 9.9082 33.8125 10.1543 33.8125 10.5254C33.8125 10.8184 34.0078 11.0137 34.4062 11.1074L34.7305 11.1836C34.9512 11.2363 35.0312 11.3086 35.0312 11.4434C35.0312 11.6133 34.8691 11.7168 34.6289 11.7168C34.3848 11.7168 34.2617 11.6426 34.1562 11.4766C34.1035 11.3984 34.043 11.3652 33.9727 11.3652C33.8672 11.3652 33.791 11.4277 33.791 11.5332C33.791 11.5605 33.7949 11.5898 33.8086 11.6211C33.9062 11.873 34.2031 12.0391 34.6074 12.0391ZM35.9941 12.0371C36.1211 12.0371 36.2051 11.9492 36.2051 11.8145V10.7305C36.2051 10.4668 36.3828 10.2715 36.6328 10.2715C36.8711 10.2715 37.0215 10.4219 37.0215 10.6582V11.8145C37.0215 11.9492 37.1016 12.0371 37.2285 12.0371C37.3555 12.0371 37.4355 11.9492 37.4355 11.8145V10.7168C37.4355 10.457 37.6094 10.2715 37.8594 10.2715C38.1094 10.2715 38.252 10.4238 38.252 10.6895V11.8145C38.252 11.9492 38.3359 12.0371 38.4629 12.0371C38.5898 12.0371 38.6758 11.9492 38.6758 11.8145V10.5879C38.6758 10.1797 38.4102 9.91016 38.0039 9.91016C37.7109 9.91016 37.4688 10.0625 37.3633 10.3125H37.3535C37.2715 10.0566 37.0645 9.91016 36.7793 9.91016C36.502 9.91016 36.2871 10.0625 36.1953 10.291H36.1855V10.123C36.1855 9.98828 36.1016 9.9082 35.9844 9.9082C35.8652 9.9082 35.7832 9.99023 35.7832 10.123V11.8145C35.7832 11.9492 35.8672 12.0371 35.9941 12.0371ZM39.9746 12.0391C40.3574 12.0391 40.6562 11.8848 40.791 11.6152C40.8086 11.5742 40.8203 11.5352 40.8203 11.502C40.8203 11.3965 40.7461 11.3301 40.6445 11.3301C40.584 11.3301 40.541 11.3516 40.4961 11.4043C40.3398 11.6172 40.1953 11.6973 39.9648 11.6973C39.6289 11.6973 39.418 11.4629 39.418 11.0879V11.0781H40.6602C40.791 11.0781 40.8691 11 40.8691 10.8633C40.8691 10.3027 40.4922 9.9082 39.9453 9.9082C39.3633 9.9082 38.9922 10.3301 38.9922 10.9824C38.9922 11.6465 39.3555 12.0391 39.9746 12.0391ZM39.4199 10.7832C39.4414 10.4629 39.6523 10.248 39.9434 10.248C40.2363 10.248 40.4375 10.4609 40.4473 10.7832H39.4199ZM41.4082 12.0371C41.5312 12.0371 41.6191 11.9531 41.6191 11.8145V10.8027C41.6191 10.4844 41.8105 10.2734 42.1074 10.2734C42.4004 10.2734 42.5449 10.4434 42.5449 10.752V11.8145C42.5449 11.9531 42.6328 12.0371 42.7559 12.0371C42.8809 12.0371 42.9688 11.9531 42.9688 11.8145V10.6699C42.9688 10.1992 42.709 9.91016 42.2559 9.91016C41.9395 9.91016 41.7246 10.0508 41.6133 10.2852H41.6035V10.123C41.6035 9.99219 41.5195 9.9082 41.3984 9.9082C41.2754 9.9082 41.1973 9.99219 41.1973 10.1211V11.8145C41.1973 11.9531 41.2832 12.0371 41.4082 12.0371ZM43.5 11.5078C43.5 11.8477 43.6758 12.0176 44.0215 12.0176H44.043C44.25 12.0176 44.3477 11.9531 44.3477 11.8262C44.3477 11.7266 44.2871 11.6777 44.166 11.666L44.1328 11.6641C43.9805 11.6523 43.9238 11.5781 43.9238 11.4141V10.2793H44.1641C44.2734 10.2793 44.3398 10.2168 44.3398 10.1133C44.3398 10.0098 44.2734 9.94531 44.1641 9.94531H43.9238V9.64062C43.9238 9.50586 43.8398 9.41602 43.7129 9.41602C43.584 9.41602 43.5 9.50586 43.5 9.64062V9.94531H43.3516C43.2422 9.94531 43.1758 10.0078 43.1758 10.1133C43.1758 10.2168 43.2422 10.2793 43.3516 10.2793H43.5V11.5078Z" fill="black"/>
<path d="M49.2358 56.3883L46.6132 54.9961L46.3273 57.0956L46.1289 58.148L46.1082 58.7052L46 59.5L47.0031 58.6121L47.6179 57.9442L49.2358 56.3883Z" fill="#C7C5C5"/>
<path d="M46 59.5L46.1289 58.148L47.0031 58.6121L46 59.5Z" fill="#4EA5F4"/>
<path d="M60.8305 34.7158C60.8305 34.7158 60.1826 34.3434 59.8877 34.2153L59.1003 35.7733L59.4385 37.2005C59.4666 37.3188 59.4519 37.4435 59.3973 37.5516L57.6078 41.0924C57.5735 41.1603 57.5245 41.2194 57.4646 41.265L56.9298 41.673C56.8498 41.734 56.7843 41.8129 56.7385 41.9036C56.6597 42.0596 56.6434 42.2409 56.693 42.409L56.75 42.6016C56.7724 42.6775 56.8238 42.7409 56.8925 42.7773C57.0332 42.852 57.2062 42.7957 57.2791 42.6515L61 35.2893L60.8305 34.7158Z" fill="#C7C5C5"/>
<path d="M59.0342 32.6133L59.9084 33.0774C60.3912 33.3337 60.5799 33.9426 60.3298 34.4374L49.2358 56.3883L46.6132 54.9961L57.7072 33.0451C57.9573 32.5503 58.5514 32.357 59.0342 32.6133Z" fill="#4EA5F4"/>
<path d="M55.8016 43.397L53.179 42.0047L52.4998 43.3486L55.1224 44.7409L55.8016 43.397Z" fill="#C7C5C5"/>
<circle cx="34.5" cy="67.5" r="1.475" stroke="#FF0000" stroke-width="0.05"/>
<path d="M34.21 68H34.8259V67.9465H34.2678V67.4844H34.7996V67.4316H34.2678V66.9966H34.8259V66.9431H34.21V68Z" fill="#FF0000"/>
<circle cx="29.5" cy="67.5" r="1.475" stroke="#FF0000" stroke-width="0.05"/>
<path d="M29.1052 68H29.4341C29.7673 68 29.938 67.7942 29.938 67.4719V67.4705C29.938 67.1489 29.7666 66.9431 29.4341 66.9431H29.1052V68ZM29.1631 67.9465V66.9966H29.4312C29.7197 66.9966 29.8794 67.179 29.8794 67.4712V67.4727C29.8794 67.7642 29.7197 67.9465 29.4312 67.9465H29.1631Z" fill="#FF0000"/>
<circle cx="24.5" cy="67.5" r="1.475" stroke="#FF0000" stroke-width="0.05"/>
<path d="M24.5286 68.0176C24.7512 68.0176 24.9189 67.885 24.9417 67.6917V67.6902L24.8838 67.6909L24.8831 67.6917C24.8604 67.8513 24.7139 67.9634 24.5286 67.9634C24.2817 67.9634 24.1235 67.7715 24.1235 67.4719V67.4705C24.1235 67.1724 24.2825 66.9797 24.5286 66.9797C24.7051 66.9797 24.8574 67.1057 24.8831 67.2705V67.272L24.9409 67.2712L24.9417 67.2705C24.9175 67.0742 24.7395 66.9255 24.5286 66.9255C24.2437 66.9255 24.0649 67.1357 24.0649 67.4705V67.4719C24.0649 67.8088 24.2422 68.0176 24.5286 68.0176Z" fill="#FF0000"/>
<circle cx="19.5" cy="67.5" r="1.475" stroke="#FF0000" stroke-width="0.05"/>
<path d="M19.1667 68H19.5154C19.7629 68 19.8867 67.8916 19.8867 67.7202V67.7188C19.8867 67.5649 19.7666 67.4712 19.623 67.4529V67.4485C19.749 67.425 19.8311 67.3269 19.8311 67.2017V67.2002C19.8311 67.0457 19.7087 66.9431 19.5132 66.9431H19.1667V68ZM19.5044 66.9958C19.6699 66.9958 19.7725 67.0786 19.7725 67.2068V67.2083C19.7725 67.3459 19.6633 67.4302 19.4949 67.4302H19.2246V66.9958H19.5044ZM19.5051 67.4822C19.7 67.4822 19.8274 67.5708 19.8274 67.7173V67.7188C19.8274 67.8594 19.7249 67.9473 19.5088 67.9473H19.2246V67.4822H19.5051Z" fill="#FF0000"/>
<circle cx="14.5" cy="67.5" r="1.475" stroke="#FF0000" stroke-width="0.05"/>
<path d="M14.0671 68H14.1287L14.2612 67.6477H14.7366L14.8691 68H14.9314L14.5286 66.9431H14.47L14.0671 68ZM14.4963 67.0222H14.5022L14.7175 67.5957H14.281L14.4963 67.0222Z" fill="#FF0000"/>
<path d="M9.55615 68H9.68799V66.9431H9.55688L9.27563 67.1453V67.2844L9.54443 67.0896H9.55615V68ZM10.3472 68.0249C10.5808 68.0249 10.7214 67.8118 10.7214 67.4719V67.4705C10.7214 67.1306 10.5808 66.9182 10.3472 66.9182C10.1135 66.9182 9.97437 67.1306 9.97437 67.4705V67.4719C9.97437 67.8118 10.1135 68.0249 10.3472 68.0249ZM10.3472 67.9099C10.1956 67.9099 10.1069 67.7415 10.1069 67.4719V67.4705C10.1069 67.2009 10.1956 67.0339 10.3472 67.0339C10.4988 67.0339 10.5889 67.2009 10.5889 67.4705V67.4719C10.5889 67.7415 10.4988 67.9099 10.3472 67.9099Z" fill="#FF0000"/>
<circle cx="34.5" cy="62.5" r="1.475" stroke="#FF0000" stroke-width="0.05"/>
<path d="M34.21 63H34.8259V62.9465H34.2678V62.4844H34.7996V62.4316H34.2678V61.9966H34.8259V61.9431H34.21V63Z" fill="#FF0000"/>
<circle cx="29.5" cy="62.5" r="1.475" stroke="#FF0000" stroke-width="0.05"/>
<path d="M29.1052 63H29.4341C29.7673 63 29.938 62.7942 29.938 62.4719V62.4705C29.938 62.1489 29.7666 61.9431 29.4341 61.9431H29.1052V63ZM29.1631 62.9465V61.9966H29.4312C29.7197 61.9966 29.8794 62.179 29.8794 62.4712V62.4727C29.8794 62.7642 29.7197 62.9465 29.4312 62.9465H29.1631Z" fill="#FF0000"/>
<circle cx="24.5" cy="62.5" r="1.475" stroke="#FF0000" stroke-width="0.05"/>
<path d="M24.5286 63.0176C24.7512 63.0176 24.9189 62.885 24.9417 62.6917V62.6902L24.8838 62.6909L24.8831 62.6917C24.8604 62.8513 24.7139 62.9634 24.5286 62.9634C24.2817 62.9634 24.1235 62.7715 24.1235 62.4719V62.4705C24.1235 62.1724 24.2825 61.9797 24.5286 61.9797C24.7051 61.9797 24.8574 62.1057 24.8831 62.2705V62.272L24.9409 62.2712L24.9417 62.2705C24.9175 62.0742 24.7395 61.9255 24.5286 61.9255C24.2437 61.9255 24.0649 62.1357 24.0649 62.4705V62.4719C24.0649 62.8088 24.2422 63.0176 24.5286 63.0176Z" fill="#FF0000"/>
<circle cx="19.5" cy="62.5" r="1.475" stroke="#FF0000" stroke-width="0.05"/>
<path d="M19.1667 63H19.5154C19.7629 63 19.8867 62.8916 19.8867 62.7202V62.7188C19.8867 62.5649 19.7666 62.4712 19.623 62.4529V62.4485C19.749 62.425 19.8311 62.3269 19.8311 62.2017V62.2002C19.8311 62.0457 19.7087 61.9431 19.5132 61.9431H19.1667V63ZM19.5044 61.9958C19.6699 61.9958 19.7725 62.0786 19.7725 62.2068V62.2083C19.7725 62.3459 19.6633 62.4302 19.4949 62.4302H19.2246V61.9958H19.5044ZM19.5051 62.4822C19.7 62.4822 19.8274 62.5708 19.8274 62.7173V62.7188C19.8274 62.8594 19.7249 62.9473 19.5088 62.9473H19.2246V62.4822H19.5051Z" fill="#FF0000"/>
<circle cx="14.5" cy="62.5" r="1.475" stroke="#FF0000" stroke-width="0.05"/>
<path d="M14.0671 63H14.1287L14.2612 62.6477H14.7366L14.8691 63H14.9314L14.5286 61.9431H14.47L14.0671 63ZM14.4963 62.0222H14.5022L14.7175 62.5957H14.281L14.4963 62.0222Z" fill="#FF0000"/>
<path d="M10.4861 61.9182C10.2729 61.9182 10.1162 62.0713 10.1162 62.2822V62.2837C10.1162 62.4866 10.2642 62.6375 10.4626 62.6375C10.6055 62.6375 10.7051 62.5605 10.7439 62.4741H10.7578C10.7578 62.4822 10.7578 62.491 10.7571 62.499C10.749 62.7195 10.6707 62.907 10.4788 62.907C10.3718 62.907 10.2979 62.8521 10.2656 62.7634L10.2627 62.7554H10.1301L10.1323 62.7649C10.1682 62.9209 10.3 63.0249 10.4773 63.0249C10.7336 63.0249 10.8838 62.814 10.8838 62.4536V62.4521C10.8838 62.0544 10.6794 61.9182 10.4861 61.9182ZM10.4854 62.5225C10.3484 62.5225 10.2488 62.4214 10.2488 62.2808V62.2793C10.2488 62.1423 10.355 62.0347 10.4875 62.0347C10.6216 62.0347 10.7263 62.1445 10.7263 62.2837V62.2844C10.7263 62.4221 10.6223 62.5225 10.4854 62.5225Z" fill="#FF0000"/>
<circle cx="34.5" cy="57.5" r="1.475" stroke="#FF0000" stroke-width="0.05"/>
<path d="M34.21 58H34.8259V57.9465H34.2678V57.4844H34.7996V57.4316H34.2678V56.9966H34.8259V56.9431H34.21V58Z" fill="#FF0000"/>
<circle cx="29.5" cy="57.5" r="1.475" stroke="#FF0000" stroke-width="0.05"/>
<path d="M29.1052 58H29.4341C29.7673 58 29.938 57.7942 29.938 57.4719V57.4705C29.938 57.1489 29.7666 56.9431 29.4341 56.9431H29.1052V58ZM29.1631 57.9465V56.9966H29.4312C29.7197 56.9966 29.8794 57.179 29.8794 57.4712V57.4727C29.8794 57.7642 29.7197 57.9465 29.4312 57.9465H29.1631Z" fill="#FF0000"/>
<circle cx="24.5" cy="57.5" r="1.475" stroke="#FF0000" stroke-width="0.05"/>
<path d="M24.5286 58.0176C24.7512 58.0176 24.9189 57.885 24.9417 57.6917V57.6902L24.8838 57.6909L24.8831 57.6917C24.8604 57.8513 24.7139 57.9634 24.5286 57.9634C24.2817 57.9634 24.1235 57.7715 24.1235 57.4719V57.4705C24.1235 57.1724 24.2825 56.9797 24.5286 56.9797C24.7051 56.9797 24.8574 57.1057 24.8831 57.2705V57.272L24.9409 57.2712L24.9417 57.2705C24.9175 57.0742 24.7395 56.9255 24.5286 56.9255C24.2437 56.9255 24.0649 57.1357 24.0649 57.4705V57.4719C24.0649 57.8088 24.2422 58.0176 24.5286 58.0176Z" fill="#FF0000"/>
<circle cx="19.5" cy="57.5" r="1.475" stroke="#FF0000" stroke-width="0.05"/>
<path d="M19.1667 58H19.5154C19.7629 58 19.8867 57.8916 19.8867 57.7202V57.7188C19.8867 57.5649 19.7666 57.4712 19.623 57.4529V57.4485C19.749 57.425 19.8311 57.3269 19.8311 57.2017V57.2002C19.8311 57.0457 19.7087 56.9431 19.5132 56.9431H19.1667V58ZM19.5044 56.9958C19.6699 56.9958 19.7725 57.0786 19.7725 57.2068V57.2083C19.7725 57.3459 19.6633 57.4302 19.4949 57.4302H19.2246V56.9958H19.5044ZM19.5051 57.4822C19.7 57.4822 19.8274 57.5708 19.8274 57.7173V57.7188C19.8274 57.8594 19.7249 57.9473 19.5088 57.9473H19.2246V57.4822H19.5051Z" fill="#FF0000"/>
<circle cx="14.5" cy="57.5" r="1.475" stroke="#FF0000" stroke-width="0.05"/>
<path d="M14.0671 58H14.1287L14.2612 57.6477H14.7366L14.8691 58H14.9314L14.5286 56.9431H14.47L14.0671 58ZM14.4963 57.0222H14.5022L14.7175 57.5957H14.281L14.4963 57.0222Z" fill="#FF0000"/>
<path d="M10.5 58.0176C10.7241 58.0176 10.8838 57.8916 10.8838 57.7144V57.7129C10.8838 57.5825 10.7922 57.4741 10.6567 57.4426V57.4397C10.7725 57.4038 10.8457 57.3159 10.8457 57.2046V57.2031C10.8457 57.0435 10.7 56.9255 10.5 56.9255C10.3 56.9255 10.1543 57.0435 10.1543 57.2031V57.2046C10.1543 57.3159 10.2275 57.4038 10.3433 57.4397V57.4426C10.2078 57.4741 10.1162 57.5825 10.1162 57.7129V57.7144C10.1162 57.8916 10.2759 58.0176 10.5 58.0176ZM10.5 57.3906C10.3726 57.3906 10.2854 57.3181 10.2854 57.2156V57.2141C10.2854 57.1116 10.3726 57.0391 10.5 57.0391C10.6274 57.0391 10.7146 57.1116 10.7146 57.2141V57.2156C10.7146 57.3181 10.6274 57.3906 10.5 57.3906ZM10.5 57.9026C10.3542 57.9026 10.2502 57.8206 10.2502 57.7063V57.7048C10.2502 57.5891 10.3535 57.5063 10.5 57.5063C10.6465 57.5063 10.7498 57.5891 10.7498 57.7048V57.7063C10.7498 57.8206 10.6458 57.9026 10.5 57.9026Z" fill="#FF0000"/>
<circle cx="34.5" cy="52.5" r="1.475" stroke="#FF0000" stroke-width="0.05"/>
<path d="M34.21 53H34.8259V52.9465H34.2678V52.4844H34.7996V52.4316H34.2678V51.9966H34.8259V51.9431H34.21V53Z" fill="#FF0000"/>
<circle cx="29.5" cy="52.5" r="1.475" stroke="#FF0000" stroke-width="0.05"/>
<path d="M29.1052 53H29.4341C29.7673 53 29.938 52.7942 29.938 52.4719V52.4705C29.938 52.1489 29.7666 51.9431 29.4341 51.9431H29.1052V53ZM29.1631 52.9465V51.9966H29.4312C29.7197 51.9966 29.8794 52.179 29.8794 52.4712V52.4727C29.8794 52.7642 29.7197 52.9465 29.4312 52.9465H29.1631Z" fill="#FF0000"/>
<circle cx="24.5" cy="52.5" r="1.475" stroke="#FF0000" stroke-width="0.05"/>
<path d="M24.5286 53.0176C24.7512 53.0176 24.9189 52.885 24.9417 52.6917V52.6902L24.8838 52.6909L24.8831 52.6917C24.8604 52.8513 24.7139 52.9634 24.5286 52.9634C24.2817 52.9634 24.1235 52.7715 24.1235 52.4719V52.4705C24.1235 52.1724 24.2825 51.9797 24.5286 51.9797C24.7051 51.9797 24.8574 52.1057 24.8831 52.2705V52.272L24.9409 52.2712L24.9417 52.2705C24.9175 52.0742 24.7395 51.9255 24.5286 51.9255C24.2437 51.9255 24.0649 52.1357 24.0649 52.4705V52.4719C24.0649 52.8088 24.2422 53.0176 24.5286 53.0176Z" fill="#FF0000"/>
<circle cx="19.5" cy="52.5" r="1.475" stroke="#FF0000" stroke-width="0.05"/>
<path d="M19.1667 53H19.5154C19.7629 53 19.8867 52.8916 19.8867 52.7202V52.7188C19.8867 52.5649 19.7666 52.4712 19.623 52.4529V52.4485C19.749 52.425 19.8311 52.3269 19.8311 52.2017V52.2002C19.8311 52.0457 19.7087 51.9431 19.5132 51.9431H19.1667V53ZM19.5044 51.9958C19.6699 51.9958 19.7725 52.0786 19.7725 52.2068V52.2083C19.7725 52.3459 19.6633 52.4302 19.4949 52.4302H19.2246V51.9958H19.5044ZM19.5051 52.4822C19.7 52.4822 19.8274 52.5708 19.8274 52.7173V52.7188C19.8274 52.8594 19.7249 52.9473 19.5088 52.9473H19.2246V52.4822H19.5051Z" fill="#FF0000"/>
<circle cx="14.5" cy="52.5" r="1.475" stroke="#FF0000" stroke-width="0.05"/>
<path d="M14.0671 53H14.1287L14.2612 52.6477H14.7366L14.8691 53H14.9314L14.5286 51.9431H14.47L14.0671 53ZM14.4963 52.0222H14.5022L14.7175 52.5957H14.281L14.4963 52.0222Z" fill="#FF0000"/>
<path d="M10.2349 53H10.3733L10.8435 52.0654V51.9431H10.144V52.061H10.7095V52.0713L10.2349 53Z" fill="#FF0000"/>
<circle cx="34.5" cy="47.5" r="1.475" stroke="#FF0000" stroke-width="0.05"/>
<path d="M34.21 48H34.8259V47.9465H34.2678V47.4844H34.7996V47.4316H34.2678V46.9966H34.8259V46.9431H34.21V48Z" fill="#FF0000"/>
<circle cx="29.5" cy="47.5" r="1.475" stroke="#FF0000" stroke-width="0.05"/>
<path d="M29.1052 48H29.4341C29.7673 48 29.938 47.7942 29.938 47.4719V47.4705C29.938 47.1489 29.7666 46.9431 29.4341 46.9431H29.1052V48ZM29.1631 47.9465V46.9966H29.4312C29.7197 46.9966 29.8794 47.179 29.8794 47.4712V47.4727C29.8794 47.7642 29.7197 47.9465 29.4312 47.9465H29.1631Z" fill="#FF0000"/>
<circle cx="24.5" cy="47.5" r="1.475" stroke="#FF0000" stroke-width="0.05"/>
<path d="M24.5286 48.0176C24.7512 48.0176 24.9189 47.885 24.9417 47.6917V47.6902L24.8838 47.6909L24.8831 47.6917C24.8604 47.8513 24.7139 47.9634 24.5286 47.9634C24.2817 47.9634 24.1235 47.7715 24.1235 47.4719V47.4705C24.1235 47.1724 24.2825 46.9797 24.5286 46.9797C24.7051 46.9797 24.8574 47.1057 24.8831 47.2705V47.272L24.9409 47.2712L24.9417 47.2705C24.9175 47.0742 24.7395 46.9255 24.5286 46.9255C24.2437 46.9255 24.0649 47.1357 24.0649 47.4705V47.4719C24.0649 47.8088 24.2422 48.0176 24.5286 48.0176Z" fill="#FF0000"/>
<circle cx="19.5" cy="47.5" r="1.475" stroke="#FF0000" stroke-width="0.05"/>
<path d="M19.1667 48H19.5154C19.7629 48 19.8867 47.8916 19.8867 47.7202V47.7188C19.8867 47.5649 19.7666 47.4712 19.623 47.4529V47.4485C19.749 47.425 19.8311 47.3269 19.8311 47.2017V47.2002C19.8311 47.0457 19.7087 46.9431 19.5132 46.9431H19.1667V48ZM19.5044 46.9958C19.6699 46.9958 19.7725 47.0786 19.7725 47.2068V47.2083C19.7725 47.3459 19.6633 47.4302 19.4949 47.4302H19.2246V46.9958H19.5044ZM19.5051 47.4822C19.7 47.4822 19.8274 47.5708 19.8274 47.7173V47.7188C19.8274 47.8594 19.7249 47.9473 19.5088 47.9473H19.2246V47.4822H19.5051Z" fill="#FF0000"/>
<circle cx="14.5" cy="47.5" r="1.475" stroke="#FF0000" stroke-width="0.05"/>
<path d="M14.0671 48H14.1287L14.2612 47.6477H14.7366L14.8691 48H14.9314L14.5286 46.9431H14.47L14.0671 48ZM14.4963 47.0222H14.5022L14.7175 47.5957H14.281L14.4963 47.0222Z" fill="#FF0000"/>
<path d="M10.5139 48.0249C10.7271 48.0249 10.8838 47.8718 10.8838 47.6609V47.6594C10.8838 47.4565 10.7358 47.3057 10.5374 47.3057C10.3945 47.3057 10.2949 47.3826 10.2561 47.469H10.2422C10.2422 47.4609 10.2422 47.4521 10.2429 47.4441C10.251 47.2236 10.3293 47.0361 10.5212 47.0361C10.6282 47.0361 10.7021 47.0911 10.7344 47.1797L10.7373 47.1877H10.8699L10.8677 47.1782C10.8318 47.0222 10.7 46.9182 10.5227 46.9182C10.2664 46.9182 10.1162 47.1292 10.1162 47.4895V47.491C10.1162 47.8887 10.3206 48.0249 10.5139 48.0249ZM10.2737 47.6594V47.6587C10.2737 47.521 10.3777 47.4207 10.5146 47.4207C10.6516 47.4207 10.7512 47.5217 10.7512 47.6624V47.6638C10.7512 47.8008 10.645 47.9084 10.5125 47.9084C10.3784 47.9084 10.2737 47.7986 10.2737 47.6594Z" fill="#FF0000"/>
<circle cx="34.5" cy="42.5" r="1.475" stroke="#FF0000" stroke-width="0.05"/>
<path d="M34.21 43H34.8259V42.9465H34.2678V42.4844H34.7996V42.4316H34.2678V41.9966H34.8259V41.9431H34.21V43Z" fill="#FF0000"/>
<circle cx="29.5" cy="42.5" r="1.475" stroke="#FF0000" stroke-width="0.05"/>
<path d="M29.1052 43H29.4341C29.7673 43 29.938 42.7942 29.938 42.4719V42.4705C29.938 42.1489 29.7666 41.9431 29.4341 41.9431H29.1052V43ZM29.1631 42.9465V41.9966H29.4312C29.7197 41.9966 29.8794 42.179 29.8794 42.4712V42.4727C29.8794 42.7642 29.7197 42.9465 29.4312 42.9465H29.1631Z" fill="#FF0000"/>
<circle cx="24.5" cy="42.5" r="1.475" stroke="#FF0000" stroke-width="0.05"/>
<path d="M24.5286 43.0176C24.7512 43.0176 24.9189 42.885 24.9417 42.6917V42.6902L24.8838 42.6909L24.8831 42.6917C24.8604 42.8513 24.7139 42.9634 24.5286 42.9634C24.2817 42.9634 24.1235 42.7715 24.1235 42.4719V42.4705C24.1235 42.1724 24.2825 41.9797 24.5286 41.9797C24.7051 41.9797 24.8574 42.1057 24.8831 42.2705V42.272L24.9409 42.2712L24.9417 42.2705C24.9175 42.0742 24.7395 41.9255 24.5286 41.9255C24.2437 41.9255 24.0649 42.1357 24.0649 42.4705V42.4719C24.0649 42.8088 24.2422 43.0176 24.5286 43.0176Z" fill="#FF0000"/>
<circle cx="19.5" cy="42.5" r="1.475" stroke="#FF0000" stroke-width="0.05"/>
<path d="M19.1667 43H19.5154C19.7629 43 19.8867 42.8916 19.8867 42.7202V42.7188C19.8867 42.5649 19.7666 42.4712 19.623 42.4529V42.4485C19.749 42.425 19.8311 42.3269 19.8311 42.2017V42.2002C19.8311 42.0457 19.7087 41.9431 19.5132 41.9431H19.1667V43ZM19.5044 41.9958C19.6699 41.9958 19.7725 42.0786 19.7725 42.2068V42.2083C19.7725 42.3459 19.6633 42.4302 19.4949 42.4302H19.2246V41.9958H19.5044ZM19.5051 42.4822C19.7 42.4822 19.8274 42.5708 19.8274 42.7173V42.7188C19.8274 42.8594 19.7249 42.9473 19.5088 42.9473H19.2246V42.4822H19.5051Z" fill="#FF0000"/>
<circle cx="14.5" cy="42.5" r="1.475" stroke="#FF0000" stroke-width="0.05"/>
<path d="M14.0671 43H14.1287L14.2612 42.6477H14.7366L14.8691 43H14.9314L14.5286 41.9431H14.47L14.0671 43ZM14.4963 42.0222H14.5022L14.7175 42.5957H14.281L14.4963 42.0222Z" fill="#FF0000"/>
<path d="M10.5015 43.0249C10.7161 43.0249 10.8691 42.8762 10.8691 42.6631V42.6616C10.8691 42.4573 10.7263 42.3086 10.5278 42.3086C10.4319 42.3086 10.3491 42.3474 10.3022 42.4185H10.2905L10.3264 42.061H10.8105V41.9431H10.2224L10.1667 42.5503H10.281C10.2942 42.5254 10.311 42.5049 10.3293 42.4873C10.3748 42.4441 10.4348 42.4229 10.5051 42.4229C10.6421 42.4229 10.7402 42.5232 10.7402 42.6638V42.6653C10.7402 42.8081 10.6436 42.9084 10.5029 42.9084C10.3792 42.9084 10.2876 42.8279 10.2751 42.7268L10.2744 42.7209H10.1477L10.1484 42.729C10.1638 42.8982 10.3044 43.0249 10.5015 43.0249Z" fill="#FF0000"/>
<circle cx="34.5" cy="37.5" r="1.475" stroke="#FF0000" stroke-width="0.05"/>
<path d="M34.21 38H34.8259V37.9465H34.2678V37.4844H34.7996V37.4316H34.2678V36.9966H34.8259V36.9431H34.21V38Z" fill="#FF0000"/>
<circle cx="29.5" cy="37.5" r="1.475" stroke="#FF0000" stroke-width="0.05"/>
<path d="M29.1052 38H29.4341C29.7673 38 29.938 37.7942 29.938 37.4719V37.4705C29.938 37.1489 29.7666 36.9431 29.4341 36.9431H29.1052V38ZM29.1631 37.9465V36.9966H29.4312C29.7197 36.9966 29.8794 37.179 29.8794 37.4712V37.4727C29.8794 37.7642 29.7197 37.9465 29.4312 37.9465H29.1631Z" fill="#FF0000"/>
<circle cx="24.5" cy="37.5" r="1.475" stroke="#FF0000" stroke-width="0.05"/>
<path d="M24.5286 38.0176C24.7512 38.0176 24.9189 37.885 24.9417 37.6917V37.6902L24.8838 37.6909L24.8831 37.6917C24.8604 37.8513 24.7139 37.9634 24.5286 37.9634C24.2817 37.9634 24.1235 37.7715 24.1235 37.4719V37.4705C24.1235 37.1724 24.2825 36.9797 24.5286 36.9797C24.7051 36.9797 24.8574 37.1057 24.8831 37.2705V37.272L24.9409 37.2712L24.9417 37.2705C24.9175 37.0742 24.7395 36.9255 24.5286 36.9255C24.2437 36.9255 24.0649 37.1357 24.0649 37.4705V37.4719C24.0649 37.8088 24.2422 38.0176 24.5286 38.0176Z" fill="#FF0000"/>
<circle cx="19.5" cy="37.5" r="1.475" stroke="#FF0000" stroke-width="0.05"/>
<path d="M19.1667 38H19.5154C19.7629 38 19.8867 37.8916 19.8867 37.7202V37.7188C19.8867 37.5649 19.7666 37.4712 19.623 37.4529V37.4485C19.749 37.425 19.8311 37.3269 19.8311 37.2017V37.2002C19.8311 37.0457 19.7087 36.9431 19.5132 36.9431H19.1667V38ZM19.5044 36.9958C19.6699 36.9958 19.7725 37.0786 19.7725 37.2068V37.2083C19.7725 37.3459 19.6633 37.4302 19.4949 37.4302H19.2246V36.9958H19.5044ZM19.5051 37.4822C19.7 37.4822 19.8274 37.5708 19.8274 37.7173V37.7188C19.8274 37.8594 19.7249 37.9473 19.5088 37.9473H19.2246V37.4822H19.5051Z" fill="#FF0000"/>
<circle cx="14.5" cy="37.5" r="1.475" stroke="#FF0000" stroke-width="0.05"/>
<path d="M14.0671 38H14.1287L14.2612 37.6477H14.7366L14.8691 38H14.9314L14.5286 36.9431H14.47L14.0671 38ZM14.4963 37.0222H14.5022L14.7175 37.5957H14.281L14.4963 37.0222Z" fill="#FF0000"/>
<path d="M10.6179 38H10.7468V37.781H10.897V37.6631H10.7468V36.9431H10.5557C10.4077 37.1636 10.2458 37.4214 10.103 37.6609V37.781H10.6179V38ZM10.2378 37.6638V37.655C10.3528 37.4609 10.4912 37.2427 10.6099 37.0654H10.6187V37.6638H10.2378Z" fill="#FF0000"/>
<circle cx="34.5" cy="32.5" r="1.475" stroke="#FF0000" stroke-width="0.05"/>
<path d="M34.21 33H34.8259V32.9465H34.2678V32.4844H34.7996V32.4316H34.2678V31.9966H34.8259V31.9431H34.21V33Z" fill="#FF0000"/>
<circle cx="29.5" cy="32.5" r="1.475" stroke="#FF0000" stroke-width="0.05"/>
<path d="M29.1052 33H29.4341C29.7673 33 29.938 32.7942 29.938 32.4719V32.4705C29.938 32.1489 29.7666 31.9431 29.4341 31.9431H29.1052V33ZM29.1631 32.9465V31.9966H29.4312C29.7197 31.9966 29.8794 32.179 29.8794 32.4712V32.4727C29.8794 32.7642 29.7197 32.9465 29.4312 32.9465H29.1631Z" fill="#FF0000"/>
<circle cx="24.5" cy="32.5" r="1.475" stroke="#FF0000" stroke-width="0.05"/>
<path d="M24.5286 33.0176C24.7512 33.0176 24.9189 32.885 24.9417 32.6917V32.6902L24.8838 32.6909L24.8831 32.6917C24.8604 32.8513 24.7139 32.9634 24.5286 32.9634C24.2817 32.9634 24.1235 32.7715 24.1235 32.4719V32.4705C24.1235 32.1724 24.2825 31.9797 24.5286 31.9797C24.7051 31.9797 24.8574 32.1057 24.8831 32.2705V32.272L24.9409 32.2712L24.9417 32.2705C24.9175 32.0742 24.7395 31.9255 24.5286 31.9255C24.2437 31.9255 24.0649 32.1357 24.0649 32.4705V32.4719C24.0649 32.8088 24.2422 33.0176 24.5286 33.0176Z" fill="#FF0000"/>
<circle cx="19.5" cy="32.5" r="1.475" stroke="#FF0000" stroke-width="0.05"/>
<path d="M19.1667 33H19.5154C19.7629 33 19.8867 32.8916 19.8867 32.7202V32.7188C19.8867 32.5649 19.7666 32.4712 19.623 32.4529V32.4485C19.749 32.425 19.8311 32.3269 19.8311 32.2017V32.2002C19.8311 32.0457 19.7087 31.9431 19.5132 31.9431H19.1667V33ZM19.5044 31.9958C19.6699 31.9958 19.7725 32.0786 19.7725 32.2068V32.2083C19.7725 32.3459 19.6633 32.4302 19.4949 32.4302H19.2246V31.9958H19.5044ZM19.5051 32.4822C19.7 32.4822 19.8274 32.5708 19.8274 32.7173V32.7188C19.8274 32.8594 19.7249 32.9473 19.5088 32.9473H19.2246V32.4822H19.5051Z" fill="#FF0000"/>
<circle cx="14.5" cy="32.5" r="1.475" stroke="#FF0000" stroke-width="0.05"/>
<path d="M14.0671 33H14.1287L14.2612 32.6477H14.7366L14.8691 33H14.9314L14.5286 31.9431H14.47L14.0671 33ZM14.4963 32.0222H14.5022L14.7175 32.5957H14.281L14.4963 32.0222Z" fill="#FF0000"/>
<path d="M10.5073 33.0176C10.719 33.0176 10.8743 32.8872 10.8743 32.7107V32.7092C10.8743 32.5591 10.7695 32.4631 10.6157 32.45V32.447C10.7476 32.4192 10.8398 32.3298 10.8398 32.1995V32.198C10.8398 32.0376 10.7073 31.9255 10.5059 31.9255C10.3081 31.9255 10.1719 32.0405 10.155 32.2126L10.1543 32.22H10.281L10.2817 32.2126C10.2927 32.1057 10.3813 32.0398 10.5059 32.0398C10.6348 32.0398 10.7073 32.1035 10.7073 32.2141V32.2156C10.7073 32.321 10.6194 32.3987 10.4934 32.3987H10.3667V32.51H10.4993C10.6472 32.51 10.7402 32.5825 10.7402 32.7122V32.7136C10.7402 32.8257 10.6458 32.9033 10.5073 32.9033C10.3667 32.9033 10.2708 32.8315 10.2605 32.7275L10.2598 32.7202H10.1331L10.1338 32.729C10.1477 32.896 10.2891 33.0176 10.5073 33.0176Z" fill="#FF0000"/>
<circle cx="34.5" cy="27.5" r="1.475" stroke="#FF0000" stroke-width="0.05"/>
<path d="M34.21 28H34.8259V27.9465H34.2678V27.4844H34.7996V27.4316H34.2678V26.9966H34.8259V26.9431H34.21V28Z" fill="#FF0000"/>
<circle cx="29.5" cy="27.5" r="1.475" stroke="#FF0000" stroke-width="0.05"/>
<path d="M29.1052 28H29.4341C29.7673 28 29.938 27.7942 29.938 27.4719V27.4705C29.938 27.1489 29.7666 26.9431 29.4341 26.9431H29.1052V28ZM29.1631 27.9465V26.9966H29.4312C29.7197 26.9966 29.8794 27.179 29.8794 27.4712V27.4727C29.8794 27.7642 29.7197 27.9465 29.4312 27.9465H29.1631Z" fill="#FF0000"/>
<circle cx="24.5" cy="27.5" r="1.475" stroke="#FF0000" stroke-width="0.05"/>
<path d="M24.5286 28.0176C24.7512 28.0176 24.9189 27.885 24.9417 27.6917V27.6902L24.8838 27.6909L24.8831 27.6917C24.8604 27.8513 24.7139 27.9634 24.5286 27.9634C24.2817 27.9634 24.1235 27.7715 24.1235 27.4719V27.4705C24.1235 27.1724 24.2825 26.9797 24.5286 26.9797C24.7051 26.9797 24.8574 27.1057 24.8831 27.2705V27.272L24.9409 27.2712L24.9417 27.2705C24.9175 27.0742 24.7395 26.9255 24.5286 26.9255C24.2437 26.9255 24.0649 27.1357 24.0649 27.4705V27.4719C24.0649 27.8088 24.2422 28.0176 24.5286 28.0176Z" fill="#FF0000"/>
<circle cx="19.5" cy="27.5" r="1.475" stroke="#FF0000" stroke-width="0.05"/>
<path d="M19.1667 28H19.5154C19.7629 28 19.8867 27.8916 19.8867 27.7202V27.7188C19.8867 27.5649 19.7666 27.4712 19.623 27.4529V27.4485C19.749 27.425 19.8311 27.3269 19.8311 27.2017V27.2002C19.8311 27.0457 19.7087 26.9431 19.5132 26.9431H19.1667V28ZM19.5044 26.9958C19.6699 26.9958 19.7725 27.0786 19.7725 27.2068V27.2083C19.7725 27.3459 19.6633 27.4302 19.4949 27.4302H19.2246V26.9958H19.5044ZM19.5051 27.4822C19.7 27.4822 19.8274 27.5708 19.8274 27.7173V27.7188C19.8274 27.8594 19.7249 27.9473 19.5088 27.9473H19.2246V27.4822H19.5051Z" fill="#FF0000"/>
<circle cx="14.5" cy="27.5" r="1.475" stroke="#FF0000" stroke-width="0.05"/>
<path d="M14.0671 28H14.1287L14.2612 27.6477H14.7366L14.8691 28H14.9314L14.5286 26.9431H14.47L14.0671 28ZM14.4963 27.0222H14.5022L14.7175 27.5957H14.281L14.4963 27.0222Z" fill="#FF0000"/>
<path d="M10.1653 28H10.8494V27.8813H10.3484V27.8696L10.5886 27.6213C10.7798 27.4243 10.8318 27.3364 10.8318 27.2156V27.2141C10.8318 27.0435 10.6904 26.9182 10.5059 26.9182C10.3037 26.9182 10.1587 27.053 10.158 27.2405L10.1594 27.2412L10.2854 27.2419L10.2861 27.2405C10.2861 27.116 10.3704 27.0332 10.4971 27.0332C10.6216 27.0332 10.697 27.1167 10.697 27.228V27.2295C10.697 27.3218 10.6575 27.3767 10.5227 27.5225L10.1653 27.9092V28Z" fill="#FF0000"/>
<circle cx="34.5" cy="22.5" r="1.475" stroke="#FF0000" stroke-width="0.05"/>
<path d="M34.21 23H34.8259V22.9465H34.2678V22.4844H34.7996V22.4316H34.2678V21.9966H34.8259V21.9431H34.21V23Z" fill="#FF0000"/>
<circle cx="29.5" cy="22.5" r="1.475" stroke="#FF0000" stroke-width="0.05"/>
<path d="M29.1052 23H29.4341C29.7673 23 29.938 22.7942 29.938 22.4719V22.4705C29.938 22.1489 29.7666 21.9431 29.4341 21.9431H29.1052V23ZM29.1631 22.9465V21.9966H29.4312C29.7197 21.9966 29.8794 22.179 29.8794 22.4712V22.4727C29.8794 22.7642 29.7197 22.9465 29.4312 22.9465H29.1631Z" fill="#FF0000"/>
<circle cx="24.5" cy="22.5" r="1.475" stroke="#FF0000" stroke-width="0.05"/>
<path d="M24.5286 23.0176C24.7512 23.0176 24.9189 22.885 24.9417 22.6917V22.6902L24.8838 22.6909L24.8831 22.6917C24.8604 22.8513 24.7139 22.9634 24.5286 22.9634C24.2817 22.9634 24.1235 22.7715 24.1235 22.4719V22.4705C24.1235 22.1724 24.2825 21.9797 24.5286 21.9797C24.7051 21.9797 24.8574 22.1057 24.8831 22.2705V22.272L24.9409 22.2712L24.9417 22.2705C24.9175 22.0742 24.7395 21.9255 24.5286 21.9255C24.2437 21.9255 24.0649 22.1357 24.0649 22.4705V22.4719C24.0649 22.8088 24.2422 23.0176 24.5286 23.0176Z" fill="#FF0000"/>
<circle cx="19.5" cy="22.5" r="1.475" stroke="#FF0000" stroke-width="0.05"/>
<path d="M19.1667 23H19.5154C19.7629 23 19.8867 22.8916 19.8867 22.7202V22.7188C19.8867 22.5649 19.7666 22.4712 19.623 22.4529V22.4485C19.749 22.425 19.8311 22.3269 19.8311 22.2017V22.2002C19.8311 22.0457 19.7087 21.9431 19.5132 21.9431H19.1667V23ZM19.5044 21.9958C19.6699 21.9958 19.7725 22.0786 19.7725 22.2068V22.2083C19.7725 22.3459 19.6633 22.4302 19.4949 22.4302H19.2246V21.9958H19.5044ZM19.5051 22.4822C19.7 22.4822 19.8274 22.5708 19.8274 22.7173V22.7188C19.8274 22.8594 19.7249 22.9473 19.5088 22.9473H19.2246V22.4822H19.5051Z" fill="#FF0000"/>
<circle cx="14.5" cy="22.5" r="1.475" stroke="#FF0000" stroke-width="0.05"/>
<path d="M14.0671 23H14.1287L14.2612 22.6477H14.7366L14.8691 23H14.9314L14.5286 21.9431H14.47L14.0671 23ZM14.4963 22.0222H14.5022L14.7175 22.5957H14.281L14.4963 22.0222Z" fill="#FF0000"/>
<path d="M10.5286 23H10.6604V21.9431H10.5293L10.248 22.1453V22.2844L10.5168 22.0896H10.5286V23Z" fill="#FF0000"/>
<path d="M15.5 22.5C15.5 23.3284 14.8284 24 14 24C13.1716 24 12.5 23.3284 12.5 22.5C12.5 21.6716 13.1716 21 14 21C14.8284 21 15.5 21.6716 15.5 22.5Z" fill="#2C9AFF"/>
<path d="M21.2166 27.7645C21.2166 28.593 20.545 29.2645 19.7166 29.2645C18.8881 29.2645 18.2166 28.593 18.2166 27.7645C18.2166 26.9361 18.8881 26.2645 19.7166 26.2645C20.545 26.2645 21.2166 26.9361 21.2166 27.7645Z" fill="#2C9AFF"/>
<path d="M16 32C16 32.8284 15.3284 33.5 14.5 33.5C13.6716 33.5 13 32.8284 13 32C13 31.1716 13.6716 30.5 14.5 30.5C15.3284 30.5 16 31.1716 16 32Z" fill="#2C9AFF"/>
<path d="M21 38C21 38.8284 20.3284 39.5 19.5 39.5C18.6716 39.5 18 38.8284 18 38C18 37.1716 18.6716 36.5 19.5 36.5C20.3284 36.5 21 37.1716 21 38Z" fill="#2C9AFF"/>
<path d="M36 42.5C36 43.3284 35.3284 44 34.5 44C33.6716 44 33 43.3284 33 42.5C33 41.6716 33.6716 41 34.5 41C35.3284 41 36 41.6716 36 42.5Z" fill="#2C9AFF"/>
<path d="M31 47C31 47.8284 30.3284 48.5 29.5 48.5C28.6716 48.5 28 47.8284 28 47C28 46.1716 28.6716 45.5 29.5 45.5C30.3284 45.5 31 46.1716 31 47Z" fill="#2C9AFF"/>
<path d="M25.9917 52.3414C25.9917 53.1698 25.3201 53.8414 24.4917 53.8414C23.6633 53.8414 22.9917 53.1698 22.9917 52.3414C22.9917 51.5129 23.6633 50.8414 24.4917 50.8414C25.3201 50.8414 25.9917 51.5129 25.9917 52.3414Z" fill="#2C9AFF"/>
<path d="M20.7119 57.384C20.7119 58.2125 20.0404 58.884 19.2119 58.884C18.3835 58.884 17.7119 58.2125 17.7119 57.384C17.7119 56.5556 18.3835 55.884 19.2119 55.884C20.0404 55.884 20.7119 56.5556 20.7119 57.384Z" fill="#2C9AFF"/>
<path d="M15.9599 62.3453C15.9599 63.1737 15.2884 63.8453 14.4599 63.8453C13.6315 63.8453 12.9599 63.1737 12.9599 62.3453C12.9599 61.5169 13.6315 60.8453 14.4599 60.8453C15.2884 60.8453 15.9599 61.5169 15.9599 62.3453Z" fill="#2C9AFF"/>
<path d="M26.0415 67.3513C26.0415 68.1797 25.3699 68.8513 24.5415 68.8513C23.7131 68.8513 23.0415 68.1797 23.0415 67.3513C23.0415 66.5229 23.7131 65.8513 24.5415 65.8513C25.3699 65.8513 26.0415 66.5229 26.0415 67.3513Z" fill="#2C9AFF"/>
<rect x="0.991177" y="17.8883" width="17.9261" height="5.51668" transform="rotate(-17.8736 0.991177 17.8883)" stroke="#00FF38" stroke-width="0.5"/>
<path d="M3.66056 21.1345C3.74142 21.1084 3.77483 21.0545 3.77489 20.9544L3.78748 20.4733L4.55705 20.2251L4.85022 20.6092C4.90688 20.6894 4.96548 20.7136 5.04912 20.6867C5.13974 20.6574 5.18594 20.5764 5.15941 20.4941C5.15087 20.4676 5.13675 20.4429 5.11022 20.4084L3.96134 18.9458C3.88355 18.8477 3.80044 18.8191 3.6917 18.8542C3.58156 18.8897 3.52988 18.9633 3.52542 19.0879L3.4484 20.9443C3.4466 20.9864 3.45091 21.0189 3.45855 21.0426C3.48598 21.1277 3.56715 21.1646 3.66056 21.1345ZM3.78467 20.1925L3.79982 19.2134L3.80819 19.2107L4.39531 19.9956L3.78467 20.1925ZM5.62769 20.5001C5.72389 20.4691 5.76406 20.3884 5.73169 20.288L5.555 19.7401L5.98718 19.6007C6.38173 19.4735 6.57194 19.1136 6.44516 18.7204C6.31882 18.3287 5.9602 18.1473 5.56984 18.2732L4.97175 18.466C4.87416 18.4975 4.83539 18.5777 4.86776 18.6781L5.4194 20.3887C5.45177 20.4891 5.5301 20.5316 5.62769 20.5001ZM5.47048 19.478L5.21286 18.6792L5.57255 18.5632C5.84302 18.476 6.04452 18.571 6.12635 18.8248C6.20817 19.0785 6.10063 19.2748 5.82877 19.3625L5.47048 19.478ZM7.3174 19.9552C7.41359 19.9242 7.45376 19.8435 7.42139 19.7431L7.2447 19.1952L7.67689 19.0558C8.07143 18.9286 8.26165 18.5687 8.13486 18.1755C8.00853 17.7838 7.6499 17.6024 7.25954 17.7283L6.66145 17.9211C6.56386 17.9526 6.52509 18.0328 6.55746 18.1332L7.1091 19.8438C7.14147 19.9442 7.21981 19.9867 7.3174 19.9552ZM7.16018 18.9331L6.90257 18.1343L7.26226 18.0183C7.53272 17.9311 7.73423 18.0262 7.81605 18.2799C7.89788 18.5336 7.79033 18.7299 7.51848 18.8176L7.16018 18.9331ZM9.00845 19.4145C9.10325 19.3839 9.14481 19.3028 9.11244 19.2024L8.90653 18.5639L9.3429 18.4232L9.94371 18.9928C10.0162 19.0602 10.0624 19.0746 10.1349 19.0512C10.2255 19.022 10.2741 18.9386 10.2475 18.8564C10.2363 18.8215 10.2185 18.7949 10.1795 18.7598L9.64552 18.2686C9.85929 18.1058 9.93135 17.8425 9.84458 17.5734C9.72364 17.1984 9.3884 17.0417 8.97434 17.1753L8.35115 17.3762C8.25356 17.4077 8.21479 17.4879 8.24716 17.5883L8.80015 19.3031C8.83252 19.4035 8.91225 19.4455 9.00845 19.4145ZM8.82516 18.3115L8.59182 17.588L9.02122 17.4495C9.2624 17.3717 9.45285 17.4612 9.52523 17.6856C9.59941 17.9156 9.5041 18.0926 9.26292 18.1704L8.82516 18.3115ZM11.4783 18.6257C12.0569 18.4391 12.2922 17.923 12.0858 17.2831C11.8795 16.6432 11.3866 16.3604 10.808 16.547C10.228 16.734 9.99459 17.2511 10.201 17.891C10.4073 18.5309 10.8984 18.8127 11.4783 18.6257ZM11.3898 18.351C11.0078 18.4742 10.6713 18.2564 10.5202 17.788C10.3687 17.3182 10.5146 16.9448 10.8966 16.8217C11.2786 16.6985 11.6137 16.9167 11.7652 17.3865C11.9162 17.855 11.7718 18.2278 11.3898 18.351ZM13.3847 17.9986C13.4949 17.9631 13.5414 17.8973 13.5477 17.769L13.6444 15.8924C13.6456 15.8582 13.6422 15.8285 13.6337 15.802C13.6076 15.7211 13.5232 15.6837 13.4298 15.7138C13.3503 15.7395 13.3179 15.7869 13.3165 15.8781L13.2712 17.6227L13.2628 17.6254L12.2073 16.2374C12.1547 16.1651 12.0942 16.1445 12.0147 16.1702C11.9199 16.2007 11.8742 16.2786 11.9012 16.3622C11.9102 16.3901 11.9248 16.4162 11.9463 16.4447L13.1179 17.9061C13.1966 18.0069 13.2746 18.0341 13.3847 17.9986ZM14.6462 17.5672L15.6444 17.2453C15.7308 17.2174 15.7723 17.1455 15.7458 17.0633C15.7193 16.981 15.6436 16.9469 15.5572 16.9748L14.7151 17.2463L14.5137 16.6218L15.3098 16.3651C15.3934 16.3381 15.4325 16.2685 15.4074 16.1904C15.3817 16.111 15.3084 16.0792 15.2261 16.1057L14.4301 16.3625L14.2408 15.7755L15.0829 15.504C15.1693 15.4761 15.2108 15.4042 15.1842 15.322C15.1577 15.2397 15.0821 15.2056 14.9956 15.2335L13.9974 15.5554C13.8999 15.5869 13.8611 15.6671 13.8934 15.7675L14.4379 17.4558C14.4703 17.5562 14.5486 17.5986 14.6462 17.5672ZM16.2439 17.0519L16.7974 16.8735C17.3968 16.6801 17.6291 16.1928 17.4241 15.557C17.2195 14.9227 16.7467 14.6688 16.1486 14.8617L15.5951 15.0402C15.4975 15.0717 15.4588 15.1519 15.4911 15.2523L16.0356 16.9406C16.068 17.041 16.1463 17.0834 16.2439 17.0519ZM16.3128 16.7311L15.838 15.2589L16.2061 15.1402C16.6313 15.0031 16.9528 15.1888 17.1057 15.6628C17.259 16.1382 17.1075 16.4749 16.6809 16.6124L16.3128 16.7311Z" fill="#00FF38"/>
</svg>
