<svg width="72" height="94" viewBox="0 0 72 94" fill="none" xmlns="http://www.w3.org/2000/svg">
<path d="M2.14909 31.6979L18.223 26.8602L25.4795 50.971L9.40564 55.8087L2.14909 31.6979Z" fill="#8F8F8F"/>
<path d="M1.16246 33.822L16.6462 27.3393L26.3703 50.565L10.8865 57.0477L1.16246 33.822Z" fill="#BDBDBD"/>
<path d="M0 36.6554L14.5964 28.3658L27.0308 50.2604L12.4344 58.55L0 36.6554Z" fill="white"/>
<path d="M12.0109 53.3852L22.8122 47.2509L23.2267 47.9807L12.4254 54.115L12.0109 53.3852Z" fill="#C4C4C4"/>
<path d="M11.3479 52.2174L22.1492 46.0831L22.5637 46.8129L11.7624 52.9472L11.3479 52.2174Z" fill="#C4C4C4"/>
<path d="M10.6848 51.0505L21.4862 44.9162L21.9007 45.6461L11.0993 51.7804L10.6848 51.0505Z" fill="#C4C4C4"/>
<path d="M10.0214 49.8822L20.8228 43.7479L21.2373 44.4778L10.4359 50.6121L10.0214 49.8822Z" fill="#C4C4C4"/>
<path d="M9.35832 48.7143L20.1597 42.58L20.5741 43.3098L9.7728 49.4441L9.35832 48.7143Z" fill="#C4C4C4"/>
<path d="M8.69525 47.5466L19.4966 41.4123L19.9111 42.1422L9.10973 48.2765L8.69525 47.5466Z" fill="#C4C4C4"/>
<path d="M8.03213 46.3797L18.8335 40.2454L19.2479 40.9752L8.44661 47.1095L8.03213 46.3797Z" fill="#C4C4C4"/>
<path d="M7.36888 45.2115L18.1702 39.0772L18.5847 39.807L7.78336 45.9413L7.36888 45.2115Z" fill="#C4C4C4"/>
<path d="M6.70572 44.0436L17.5071 37.9093L17.9215 38.6391L7.1202 44.7734L6.70572 44.0436Z" fill="#C4C4C4"/>
<path d="M6.04269 42.8769L16.844 36.7426L17.2585 37.4724L6.45717 43.6067L6.04269 42.8769Z" fill="#C4C4C4"/>
<path d="M16.3361 53.2348C17.0555 52.3965 18.3182 52.3002 19.1564 53.0196L31.1191 63.286L27.8155 67.1355L15.8528 56.869C15.0145 56.1496 14.9182 54.887 15.6375 54.0488L16.3361 53.2348Z" fill="#FADFBF"/>
<path d="M57.3008 63.5015C57.3008 63.5015 69.3712 58.1362 71.021 56.1948C72.6709 54.2534 71.8955 52.3165 71.021 49.7966L65.7792 33.6379C65.4016 32.474 64.0768 31.919 62.9824 32.4662L61.676 33.1193C60.7288 33.5929 60.3123 34.7186 60.7218 35.6952C62.6054 40.1871 67.4182 51.9196 66.6647 52.7676C65.7312 53.8182 54.9164 59.0241 54.9164 59.0241L57.3008 63.5015Z" fill="#FADFBF"/>
<path d="M25.1651 93.7612C25.1651 93.7612 21.6262 53.7612 44.8186 53.7612C68.011 53.7612 64.8234 93.7612 64.8234 93.7612H25.1651Z" fill="#5887FF"/>
<path d="M60.9716 37.7612C60.9716 46.5978 53.5843 53.7612 44.4716 53.7612C35.3589 53.7612 27.9716 46.5978 27.9716 37.7612C27.9716 28.9247 35.3589 21.7612 44.4716 21.7612C53.5843 21.7612 60.9716 28.9247 60.9716 37.7612Z" fill="#FADFBF"/>
<path d="M42.7456 12.7563C43.539 12.7563 43.9052 12.2437 43.9663 11.4624C44.0273 10.2661 44.4423 9.64355 46.017 8.71582C47.6284 7.75146 48.5805 6.45752 48.5805 4.56543C48.5805 1.86768 46.371 0 43.185 0C40.7436 0 38.8881 1.02539 38.1435 2.70996C37.9238 3.18604 37.8139 3.61328 37.8139 4.13818C37.8139 4.88281 38.2412 5.33447 38.998 5.33447C39.6083 5.33447 39.9868 5.06592 40.2309 4.30908C40.6215 2.97852 41.5981 2.24609 43.0751 2.24609C44.6987 2.24609 45.8095 3.23486 45.8095 4.67529C45.8095 5.87158 45.2846 6.604 43.8076 7.49512C42.2206 8.44727 41.4638 9.48486 41.4638 11.0474V11.3281C41.4638 12.1338 41.8911 12.7563 42.7456 12.7563ZM42.7456 17.9443C43.6611 17.9443 44.3569 17.2607 44.3569 16.3696C44.3569 15.4785 43.6611 14.7949 42.7456 14.7949C41.8544 14.7949 41.1464 15.4785 41.1464 16.3696C41.1464 17.2607 41.8544 17.9443 42.7456 17.9443Z" fill="#FF0000"/>
</svg>
